<?xml version="1.0" standalone="no"?>
<!DOCTYPE svg PUBLIC "-//W3C//DTD SVG 20010904//EN"
 "http://www.w3.org/TR/2001/REC-SVG-20010904/DTD/svg10.dtd">
<svg version="1.0" xmlns="http://www.w3.org/2000/svg"
 width="900.000000pt" height="900.000000pt" viewBox="0 0 900.000000 900.000000"
 preserveAspectRatio="xMidYMid meet">
<metadata>
Created by potrace 1.14, written by Peter Selinger 2001-2017
</metadata>
<g transform="translate(0.000000,900.000000) scale(0.100000,-0.100000)"
fill="#000000" stroke="none">
<path d="M4238 8995 c-2 -2 -58 -6 -126 -9 -67 -4 -128 -9 -135 -11 -6 -2 -37
-6 -67 -10 -50 -5 -186 -27 -250 -40 -14 -3 -38 -8 -55 -11 -16 -3 -93 -20
-170 -39 -579 -140 -1127 -395 -1590 -740 -217 -162 -324 -254 -515 -445 -168
-167 -190 -192 -325 -360 -240 -298 -471 -676 -605 -990 -17 -41 -40 -93 -50
-115 -18 -42 -93 -242 -115 -310 -11 -36 -37 -121 -80 -270 -16 -57 -71 -309
-79 -370 -4 -23 -8 -50 -10 -61 -2 -12 -7 -45 -11 -75 -3 -30 -8 -65 -10 -79
-36 -193 -42 -797 -10 -1045 14 -107 17 -134 21 -165 5 -37 21 -127 29 -170 3
-14 8 -41 11 -60 3 -19 13 -62 21 -95 8 -33 16 -67 18 -75 17 -81 66 -254 110
-385 154 -460 377 -882 678 -1284 303 -405 690 -766 1134 -1059 222 -146 518
-297 798 -407 152 -59 387 -137 453 -150 12 -2 26 -6 30 -9 4 -2 68 -18 142
-35 127 -28 157 -34 220 -46 14 -3 36 -7 50 -10 14 -3 43 -7 65 -10 48 -7 114
-16 135 -20 15 -3 97 -11 227 -24 135 -13 598 -4 753 14 19 2 61 7 93 10 32 4
68 8 80 11 12 2 42 7 67 10 25 3 47 8 50 9 3 2 26 6 50 10 25 4 81 15 125 25
45 10 92 21 105 24 147 29 480 134 670 211 143 58 422 194 555 270 164 95 456
296 540 372 11 10 47 40 80 66 473 383 908 943 1182 1522 119 252 262 647 298
823 2 9 12 53 24 97 11 44 22 94 25 110 3 17 7 41 10 55 6 28 23 135 31 195 3
22 7 54 10 70 2 17 7 55 10 85 3 30 7 74 10 97 24 243 25 592 0 823 -2 19 -6
67 -10 105 -3 39 -8 81 -10 95 -3 14 -7 43 -10 65 -5 34 -35 203 -49 270 -2
11 -12 49 -21 85 -9 36 -18 72 -20 80 -32 161 -157 519 -265 755 -258 566
-647 1095 -1095 1491 -49 43 -92 81 -95 84 -57 59 -541 406 -598 427 -9 4 -44
23 -77 44 -119 72 -512 258 -580 274 -5 2 -35 13 -65 25 -171 69 -586 185
-736 205 -11 2 -45 8 -75 14 -30 6 -76 13 -104 17 -27 3 -58 8 -68 10 -10 2
-53 6 -95 10 -42 3 -86 8 -97 11 -20 5 -632 12 -637 8z"/>
</g>
</svg>
